HIERARCHY
ROOT hip
{
	OFFSET 0.000000 103.560692 0.219151
	CHANNELS 6 Xposition Yposition Zposition Zrotation Xrotation Yrotation
	JOINT pelvis
	{
		OFFSET 0.000000 1.955040 1.591925
		CHANNELS 3 Zrotation Xrotation Yrotation
		JOINT lThigh
		{
			OFFSET 8.341582 -7.629402 -0.646910
			CHANNELS 3 Zrotation Xrotation Yrotation
			JOINT lShin
			{
				OFFSET 2.185763 -45.093132 -0.705710
				CHANNELS 3 Zrotation Xrotation Yrotation
				JOINT lFoot
				{
					OFFSET 0.730976 -46.379768 -2.264282
					CHANNELS 3 Zrotation Xrotation Yrotation
					JOINT lToe
					{
						OFFSET 2.797621 -4.200020 10.742415
						CHANNELS 3 Zrotation Xrotation Yrotation
						JOINT lBigToe
						{
							OFFSET -2.433708 -0.269072 1.841711
							CHANNELS 3 Zrotation Xrotation Yrotation
							End Site
							{
								OFFSET -10.527346 -33.657166 -1.340707
							}
						}
					}
				}
			}
		}
		JOINT rThigh
		{
			OFFSET -8.341582 -7.629402 -0.646910
			CHANNELS 3 Zrotation Xrotation Yrotation
			JOINT rShin
			{
				OFFSET -2.185763 -45.093132 -0.705710
				CHANNELS 3 Zrotation Xrotation Yrotation
				JOINT rFoot
				{
					OFFSET -0.730976 -46.379768 -2.264282
					CHANNELS 3 Zrotation Xrotation Yrotation
					JOINT rToe
					{
						OFFSET -2.797621 -4.200019 10.742415
						CHANNELS 3 Zrotation Xrotation Yrotation
						JOINT rBigToe
						{
							OFFSET 2.433708 -0.269072 1.841711
							CHANNELS 3 Zrotation Xrotation Yrotation
							End Site
							{
								OFFSET 0.000000 24.298409 -0.425647
							}
						}
					}
				}
			}
		}
	}
	JOINT abdomen
	{
		OFFSET 0.000000 1.841293 -3.551421
		CHANNELS 3 Zrotation Xrotation Yrotation
		JOINT abdomen2
		{
			OFFSET 0.000000 5.439911 3.419600
			CHANNELS 3 Zrotation Xrotation Yrotation
			JOINT chest
			{
				OFFSET 0.000000 14.715073 -2.918270
				CHANNELS 3 Zrotation Xrotation Yrotation
				JOINT neck
				{
					OFFSET 0.000000 26.294655 -1.248052
					CHANNELS 3 Zrotation Xrotation Yrotation
					JOINT head
					{
						OFFSET 0.000000 8.807068 1.063695
						CHANNELS 3 Zrotation Xrotation Yrotation
						JOINT rEye
						{
							OFFSET -3.030866 6.632080 7.702687
							CHANNELS 3 Zrotation Xrotation Yrotation
							End Site
							{
								OFFSET 2.969555 -11.022598 8.626689
							}
						}
						JOINT lEye
						{
							OFFSET 3.030866 6.632080 7.702687
							CHANNELS 3 Zrotation Xrotation Yrotation
							End Site
							{
								OFFSET 0.000000 -15.881760 10.104412
							}
						}
						JOINT upperJaw
						{
							OFFSET 0.000000 1.922699 2.891887
							CHANNELS 3 Zrotation Xrotation Yrotation
							End Site
							{
								OFFSET 0.000000 -19.386169 10.230839
							}
						}
						JOINT lowerJaw
						{
							OFFSET 0.000000 1.857620 2.686640
							CHANNELS 3 Zrotation Xrotation Yrotation
							JOINT tongueBase
							{
								OFFSET 0.000000 -3.019135 2.746916
								CHANNELS 3 Zrotation Xrotation Yrotation
								JOINT tongue01
								{
									OFFSET 0.000000 0.664124 0.223355
									CHANNELS 3 Zrotation Xrotation Yrotation
									JOINT tongue02
									{
										OFFSET 0.000000 0.339737 0.715627
										CHANNELS 3 Zrotation Xrotation Yrotation
										JOINT tongue03
										{
											OFFSET 0.000000 0.123444 0.730634
											CHANNELS 3 Zrotation Xrotation Yrotation
											JOINT tongue04
											{
												OFFSET 0.000000 0.017212 0.737415
												CHANNELS 3 Zrotation Xrotation Yrotation
												JOINT tongue05
												{
													OFFSET 0.000000 -0.021011 0.632440
													CHANNELS 3 Zrotation Xrotation Yrotation
													JOINT tongueTip
													{
														OFFSET 0.000000 -0.014404 0.601796
														CHANNELS 3 Zrotation Xrotation Yrotation
														End Site
														{
															OFFSET -14.139406 -2.625778 0.472826
														}
													}
												}
											}
										}
									}
								}
							}
						}
					}
				}
				JOINT rCollar
				{
					OFFSET -2.109295 21.452370 3.768136
					CHANNELS 3 Zrotation Xrotation Yrotation
					JOINT rShldr
					{
						OFFSET -11.491621 -2.568573 -4.940255
						CHANNELS 3 Zrotation Xrotation Yrotation
						JOINT rForeArm
						{
							OFFSET -28.789030 -0.213806 2.098380
							CHANNELS 3 Zrotation Xrotation Yrotation
							JOINT rHand
							{
								OFFSET -22.260895 -0.869583 10.391586
								CHANNELS 3 Zrotation Xrotation Yrotation
								JOINT rThumb1
								{
									OFFSET -0.628075 0.137405 2.362409
									CHANNELS 3 Zrotation Xrotation Yrotation
									JOINT rThumb2
									{
										OFFSET 0.085205 -0.600235 3.826079
										CHANNELS 3 Zrotation Xrotation Yrotation
										JOINT rThumb3
										{
											OFFSET -1.255478 -0.879211 2.439162
											CHANNELS 3 Zrotation Xrotation Yrotation
											End Site
											{
												OFFSET -2.963715 0.538574 4.059553
											}
										}
									}
								}
								JOINT rCarpal1
								{
									OFFSET -0.855530 1.026047 1.621985
									CHANNELS 3 Zrotation Xrotation Yrotation
									JOINT rIndex1
									{
										OFFSET -3.951324 0.390884 3.873290
										CHANNELS 3 Zrotation Xrotation Yrotation
										JOINT rIndex2
										{
											OFFSET -3.071884 -1.259598 2.506104
											CHANNELS 3 Zrotation Xrotation Yrotation
											JOINT rIndex3
											{
												OFFSET -1.394112 -1.446640 1.203302
												CHANNELS 3 Zrotation Xrotation Yrotation
												End Site
												{
													OFFSET -3.392448 -1.258026 0.533405
												}
											}
										}
									}
									JOINT rMid1
									{
										OFFSET -5.422974 0.107910 2.002650
										CHANNELS 3 Zrotation Xrotation Yrotation
										JOINT rMid2
										{
											OFFSET -3.599533 -1.323776 2.090647
											CHANNELS 3 Zrotation Xrotation Yrotation
											JOINT rMid3
											{
												OFFSET -1.360191 -1.598495 1.068055
												CHANNELS 3 Zrotation Xrotation Yrotation
												End Site
												{
													OFFSET -4.087769 -0.460876 0.069540
												}
											}
										}
									}
								}
								JOINT rCarpal2
								{
									OFFSET -1.942749 0.556229 -0.337217
									CHANNELS 3 Zrotation Xrotation Yrotation
									JOINT rRing1
									{
										OFFSET -4.762787 -0.121170 2.349089
										CHANNELS 3 Zrotation Xrotation Yrotation
										JOINT rRing2
										{
											OFFSET -3.380348 -1.337097 1.356700
											CHANNELS 3 Zrotation Xrotation Yrotation
											JOINT rRing3
											{
												OFFSET -1.430290 -1.499649 0.914224
												CHANNELS 3 Zrotation Xrotation Yrotation
												End Site
												{
													OFFSET -1.783272 -2.215851 -0.391895
												}
											}
										}
									}
									JOINT rPinky1
									{
										OFFSET -5.232559 -1.313721 0.336493
										CHANNELS 3 Zrotation Xrotation Yrotation
										JOINT rPinky2
										{
											OFFSET -2.217606 -1.389603 0.800693
											CHANNELS 3 Zrotation Xrotation Yrotation
											JOINT rPinky3
											{
												OFFSET -0.886887 -1.462280 0.774199
												CHANNELS 3 Zrotation Xrotation Yrotation
												End Site
												{
													OFFSET 14.139406 -2.625778 0.472826
												}
											}
										}
									}
								}
							}
						}
					}
				}
				JOINT lCollar
				{
					OFFSET 2.109295 21.452370 3.768136
					CHANNELS 3 Zrotation Xrotation Yrotation
					JOINT lShldr
					{
						OFFSET 11.491621 -2.568573 -4.940255
						CHANNELS 3 Zrotation Xrotation Yrotation
						JOINT lForeArm
						{
							OFFSET 28.789030 -0.213806 2.098380
							CHANNELS 3 Zrotation Xrotation Yrotation
							JOINT lHand
							{
								OFFSET 22.260895 -0.869583 10.391586
								CHANNELS 3 Zrotation Xrotation Yrotation
								JOINT lThumb1
								{
									OFFSET 0.628075 0.137405 2.362409
									CHANNELS 3 Zrotation Xrotation Yrotation
									JOINT lThumb2
									{
										OFFSET -0.085205 -0.600235 3.826079
										CHANNELS 3 Zrotation Xrotation Yrotation
										JOINT lThumb3
										{
											OFFSET 1.255478 -0.879211 2.439162
											CHANNELS 3 Zrotation Xrotation Yrotation
											End Site
											{
												OFFSET 2.963715 0.538574 4.059553
											}
										}
									}
								}
								JOINT lCarpal1
								{
									OFFSET 0.855530 1.026047 1.621985
									CHANNELS 3 Zrotation Xrotation Yrotation
									JOINT lIndex1
									{
										OFFSET 3.951324 0.390884 3.873290
										CHANNELS 3 Zrotation Xrotation Yrotation
										JOINT lIndex2
										{
											OFFSET 3.071884 -1.259598 2.506104
											CHANNELS 3 Zrotation Xrotation Yrotation
											JOINT lIndex3
											{
												OFFSET 1.394112 -1.446640 1.203302
												CHANNELS 3 Zrotation Xrotation Yrotation
												End Site
												{
													OFFSET 3.392448 -1.258026 0.533405
												}
											}
										}
									}
									JOINT lMid1
									{
										OFFSET 5.422974 0.107910 2.002650
										CHANNELS 3 Zrotation Xrotation Yrotation
										JOINT lMid2
										{
											OFFSET 3.599533 -1.323776 2.090647
											CHANNELS 3 Zrotation Xrotation Yrotation
											JOINT lMid3
											{
												OFFSET 1.360191 -1.598495 1.068055
												CHANNELS 3 Zrotation Xrotation Yrotation
												End Site
												{
													OFFSET 4.087769 -0.460876 0.069540
												}
											}
										}
									}
								}
								JOINT lCarpal2
								{
									OFFSET 1.942749 0.556229 -0.337217
									CHANNELS 3 Zrotation Xrotation Yrotation
									JOINT lRing1
									{
										OFFSET 4.762787 -0.121170 2.349089
										CHANNELS 3 Zrotation Xrotation Yrotation
										JOINT lRing2
										{
											OFFSET 3.380348 -1.337097 1.356700
											CHANNELS 3 Zrotation Xrotation Yrotation
											JOINT lRing3
											{
												OFFSET 1.430290 -1.499649 0.914224
												CHANNELS 3 Zrotation Xrotation Yrotation
												End Site
												{
													OFFSET 1.783272 -2.215851 -0.391895
												}
											}
										}
									}
									JOINT lPinky1
									{
										OFFSET 5.232559 -1.313721 0.336493
										CHANNELS 3 Zrotation Xrotation Yrotation
										JOINT lPinky2
										{
											OFFSET 2.217606 -1.389603 0.800693
											CHANNELS 3 Zrotation Xrotation Yrotation
											JOINT lPinky3
											{
												OFFSET 0.886887 -1.462280 0.774199
												CHANNELS 3 Zrotation Xrotation Yrotation
												End Site
												{
													OFFSET -10.295957 -17.050110 17.461308
												}
											}
										}
									}
								}
							}
						}
					}
				}
				JOINT rPectoral
				{
					OFFSET -6.358840 6.360771 6.369920
					CHANNELS 3 Zrotation Xrotation Yrotation
					End Site
					{
						OFFSET 10.295957 -17.050110 17.461308
					}
				}
				JOINT lPectoral
				{
					OFFSET 6.358840 6.360771 6.369920
					CHANNELS 3 Zrotation Xrotation Yrotation
					End Site
					{
						OFFSET 10.295957 -17.050110 17.461308
					}
				}
			}
		}
	}
}
MOTION
Frames:	5
Frame Time:	0.0333333
0.000000 5.791726 0.000000 -7.131694 1.598858 11.743013 0.000000 0.000000 0.000000 3.975759 -4.849073 -4.091136 -0.982144 23.704718 -5.226291 -11.636592 30.542032 3.304539 40.304665 -59.660126 22.754305 0.000000 0.000000 0.000000 7.464469 -26.823681 0.749877 -0.566886 19.262226 0.631929 6.061531 26.944149 2.989131 -15.712108 -35.230267 -4.491452 0.000000 0.000000 0.000000 4.955416 1.219620 -5.506456 0.000000 0.000000 0.000000 2.692916 -0.194936 -5.738790 -0.127736 0.519765 -3.094246 1.462070 4.475172 -3.193997 0.000000 0.000000 0.000000 0.000000 0.000000 0.000000 0.000000 0.000000 0.000000 0.000000 0.000000 0.000000 0.000000 0.000000 0.000000 0.000000 0.000000 0.000000 0.000000 0.000000 0.000000 0.000000 0.000000 0.000000 0.000000 0.000000 0.000000 0.000000 0.000000 0.000000 0.000000 0.000000 0.000000 7.501582 -1.169665 -1.180650 68.406158 -1.537558 -21.187672 -13.374764 20.099968 5.096368 -12.919808 -9.060814 -2.533458 1.586877 -1.959949 -4.364126 -0.086357 -0.189240 0.161860 0.000000 0.000000 0.000000 0.000000 0.000000 0.000000 -0.058094 3.937455 -10.292114 27.445833 21.123442 0.586586 6.972396 6.276536 0.356536 0.011301 1.741534 -4.627695 29.647335 16.768993 3.567147 7.117458 4.008407 1.731394 0.000000 0.000000 0.000000 3.495895 -0.558110 5.522613 30.764290 10.683604 9.375944 -1.436347 -0.341312 -0.621073 12.717269 -0.833564 8.361774 31.462574 6.118083 11.629505 11.818028 2.519578 5.549626 -0.668279 -0.927272 -1.762973 -68.110962 20.006165 -4.268816 9.998586 4.416754 -26.207764 9.248571 -6.590211 1.615152 -1.199196 -1.497014 8.144932 0.079971 -0.175215 -0.149887 0.000000 0.000000 0.000000 0.000000 0.000000 0.000000 -8.857172 12.272840 8.641085 -28.961464 22.205256 -0.319818 -28.120228 23.938519 3.122392 -15.629568 10.077700 -2.354407 -26.865549 15.166746 -3.610876 -32.500740 19.362854 -3.679529 0.000000 0.000000 0.000000 -15.149336 4.469491 -5.518847 -32.340317 11.360172 -9.698556 -30.021803 10.585465 -10.763189 -14.882235 -1.112129 -9.990119 -33.069210 6.600417 -12.128142 -18.755224 4.545151 -8.582247 0.043769 -0.002068 -0.128508 0.056023 0.002503 -0.164469 
-0.324561 6.443650 1.312097 -8.381853 1.516826 12.938257 0.000000 0.000000 0.000000 4.833879 -8.126122 -8.260756 -0.673401 28.130486 -1.951511 -4.875529 8.137117 1.182082 25.646648 -48.638546 10.981539 0.000000 0.000000 0.000000 9.068394 -24.290785 1.793433 -0.552849 14.940486 0.683185 13.097045 30.286926 -14.950926 -15.721673 -35.246498 -4.496729 0.000000 0.000000 0.000000 6.400525 0.904749 -7.776364 0.000000 0.000000 0.000000 3.276499 -0.168572 -5.676251 0.213488 0.376364 -3.253570 1.164815 3.846135 -2.729637 0.000000 0.000000 0.000000 0.000000 0.000000 0.000000 0.000000 0.000000 0.000000 0.000000 0.000000 0.000000 0.000000 0.000000 0.000000 0.000000 0.000000 0.000000 0.000000 0.000000 0.000000 0.000000 0.000000 0.000000 0.000000 0.000000 0.000000 0.000000 0.000000 0.000000 0.000000 0.000000 0.000000 7.430133 -1.228070 -1.706276 68.787781 -0.804959 -19.604143 -8.171895 12.545307 3.550886 -13.797918 -9.636414 -2.774998 1.587296 -1.972103 -4.702360 -0.086357 -0.189240 0.161860 0.000000 0.000000 0.000000 0.000000 0.000000 0.000000 0.417776 4.343437 -10.115805 28.060516 21.564409 0.482002 7.517118 6.766652 0.352146 0.559004 2.039070 -4.430584 30.287512 17.135296 3.545637 7.733721 4.367485 1.858801 0.000000 0.000000 0.000000 4.107207 -0.356899 5.669979 31.405586 10.957840 9.509411 -0.778398 -0.187008 -0.335703 13.336274 -0.704651 8.556721 32.116631 6.312660 11.833980 12.456964 2.689587 5.836999 -1.411112 -0.170134 -1.770100 -68.571236 19.108263 -2.981373 10.636933 4.927036 -26.059797 10.741029 -7.606565 1.970373 -1.196970 -1.490175 7.910156 0.079971 -0.175215 -0.149887 0.000000 0.000000 0.000000 0.000000 0.000000 0.000000 -7.694002 11.203979 8.940213 -27.566240 21.210060 -0.566486 -26.854784 23.002554 2.735738 -14.290321 9.231665 -2.061711 -25.434326 14.337143 -3.601844 -31.200209 18.587868 -3.750311 0.000000 0.000000 0.000000 -13.640678 3.906160 -5.247935 -30.890121 10.737289 -9.402382 -28.743029 10.018250 -10.415309 -13.327522 -1.444156 -9.507897 -31.590944 6.156083 -11.669798 -17.465240 4.138855 -8.033738 0.060677 -0.002893 -0.178153 0.056930 0.002543 -0.167130 
-0.728865 6.905357 3.478757 -9.556438 1.964552 13.436167 0.000000 0.000000 0.000000 5.399789 -14.028105 -12.856591 -0.213550 39.480640 0.409091 -4.596611 2.465610 5.805456 18.945223 -40.317230 6.398615 0.000000 0.000000 0.000000 10.938715 -22.339218 4.128704 -0.554539 11.878712 0.346785 14.053532 30.269596 -16.506729 -15.731036 -35.262344 -4.501904 0.000000 0.000000 0.000000 7.845022 0.465398 -9.363132 0.000000 0.000000 0.000000 3.647133 -0.211796 -5.632955 0.546573 0.209994 -3.220069 0.737468 3.234433 -2.129030 0.000000 0.000000 0.000000 0.000000 0.000000 0.000000 0.000000 0.000000 0.000000 0.000000 0.000000 0.000000 0.000000 0.000000 0.000000 0.000000 0.000000 0.000000 0.000000 0.000000 0.000000 0.000000 0.000000 0.000000 0.000000 0.000000 0.000000 0.000000 0.000000 0.000000 0.000000 0.000000 0.000000 7.336099 -1.053058 -3.297168 69.218269 0.185574 -17.595743 -3.499777 5.343573 2.479792 -15.022860 -10.428807 -3.125607 1.587725 -1.987259 -5.124018 -0.086357 -0.189240 0.161860 0.000000 0.000000 0.000000 0.000000 0.000000 0.000000 0.961320 4.809932 -9.918041 28.767538 22.067871 0.355616 8.141449 7.327609 0.341345 1.184830 2.381956 -4.208414 31.022053 17.554287 3.515693 8.438546 4.780187 1.999969 0.000000 0.000000 0.000000 4.806344 -0.124647 5.836031 32.139660 11.273537 9.658483 -0.026200 -0.006360 -0.011262 14.044198 -0.554525 8.778133 32.864784 6.538228 12.065382 13.187427 2.888099 6.163647 -2.363189 -0.200558 -1.179842 -69.076408 18.057522 -1.410679 9.830635 4.726181 -24.903099 12.576571 -8.834134 2.441301 -1.194093 -1.481464 7.610781 0.079971 -0.175215 -0.149887 0.000000 0.000000 0.000000 0.000000 0.000000 0.000000 -6.297695 9.931017 9.326309 -25.908779 20.008039 -0.826413 -25.352156 21.866112 2.303505 -12.683363 8.226848 -1.685552 -23.722128 13.341550 -3.562904 -29.643915 17.653463 -3.810603 0.000000 0.000000 0.000000 -11.830134 3.240655 -4.904007 -29.148127 9.999322 -9.026459 -27.202234 9.345949 -9.980517 -11.460136 -1.824679 -8.918187 -29.812632 5.638253 -11.104859 -15.908459 3.666390 -7.361984 0.111530 -0.005464 -0.327482 0.037689 0.001702 -0.110646 
-1.176321 6.438905 5.942160 -10.499235 2.602223 12.737967 0.000000 0.000000 0.000000 6.977216 -19.345306 -13.942349 0.088045 49.007412 1.125962 -5.226804 -2.098518 7.762630 14.569330 -33.242867 3.877579 0.000000 0.000000 0.000000 12.514836 -23.502895 4.173294 -0.565891 15.859365 0.672620 14.166540 26.316492 -16.126841 -15.738697 -35.275326 -4.506131 0.000000 0.000000 0.000000 9.025143 0.001061 -9.374258 0.000000 0.000000 0.000000 3.970389 -0.242127 -5.595222 0.709977 0.094940 -2.926850 0.229381 2.764897 -1.479792 0.000000 0.000000 0.000000 0.000000 0.000000 0.000000 0.000000 0.000000 0.000000 0.000000 0.000000 0.000000 0.000000 0.000000 0.000000 0.000000 0.000000 0.000000 0.000000 0.000000 0.000000 0.000000 0.000000 0.000000 0.000000 0.000000 0.000000 0.000000 0.000000 0.000000 0.000000 0.000000 0.000000 7.202285 -1.003766 -6.166646 69.610291 1.315869 -15.338334 -0.633911 0.784095 1.746310 -16.352936 -11.274780 -3.523980 1.588055 -2.003755 -5.583219 -0.086357 -0.189240 0.161860 0.000000 0.000000 0.000000 0.000000 0.000000 0.000000 1.520443 5.292830 -9.718645 29.500341 22.585333 0.217826 8.786032 7.905734 0.323734 1.828863 2.738004 -3.983240 31.781353 17.985806 3.478859 9.164560 5.207416 2.140235 0.000000 0.000000 0.000000 5.526463 0.116916 6.004255 32.896351 11.600921 9.808013 0.748235 0.184302 0.320716 14.773460 -0.396886 9.004430 33.635464 6.773887 12.300918 13.939393 3.097091 6.497790 -3.371554 -0.267164 0.631483 -69.560051 16.954346 0.298087 9.775854 5.375739 -22.884947 14.568270 -10.136205 2.993648 -1.190795 -1.471683 7.273880 0.079971 -0.175215 -0.149887 0.000000 0.000000 0.000000 0.000000 0.000000 0.000000 -4.816001 8.594341 9.767455 -24.173685 18.728445 -1.059360 -23.783577 20.651741 1.884314 -10.979639 7.175268 -1.257659 -21.916075 12.289289 -3.488696 -28.005465 16.662617 -3.845194 0.000000 0.000000 0.000000 -9.910865 2.548524 -4.517514 -27.302721 9.230696 -8.604810 -25.568068 8.646829 -9.501186 -9.479238 -2.206220 -8.280797 -27.926085 5.109358 -10.490020 -14.254737 3.186116 -6.637233 0.203647 -0.010458 -0.598024 -0.021136 -0.000986 0.062054 
-1.637025 5.536000 8.341774 -11.072077 3.191542 10.565598 0.000000 0.000000 0.000000 9.577152 -23.724848 -12.026365 0.180652 55.468384 -1.658936 -4.207804 -4.640357 9.064739 14.029239 -32.267952 3.599616 0.000000 0.000000 0.000000 14.111038 -24.955521 4.336612 -0.664374 21.252619 0.298897 12.962039 22.210800 -13.406540 -15.744615 -35.285305 -4.509405 0.000000 0.000000 0.000000 9.733860 -0.417082 -7.573798 0.000000 0.000000 0.000000 4.057804 -0.257297 -5.584450 0.672009 0.021236 -2.353408 -0.306749 2.461025 -0.862809 0.000000 0.000000 0.000000 0.000000 0.000000 0.000000 0.000000 0.000000 0.000000 0.000000 0.000000 0.000000 0.000000 0.000000 0.000000 0.000000 0.000000 0.000000 0.000000 0.000000 0.000000 0.000000 0.000000 0.000000 0.000000 0.000000 0.000000 0.000000 0.000000 0.000000 0.000000 0.000000 0.000000 6.943696 -0.859064 -10.430253 69.923225 2.545873 -12.905954 -0.414799 0.537414 1.084310 -17.506060 -11.995629 -3.883939 1.588253 -2.021587 -6.079308 -0.086357 -0.189240 0.161860 0.000000 0.000000 0.000000 0.000000 0.000000 0.000000 2.097277 5.794178 -9.517277 30.262499 23.118689 0.067206 9.453783 8.503347 0.298569 2.493529 3.108787 -3.754555 32.568863 18.431522 3.434318 9.914784 5.651057 2.279672 0.000000 0.000000 0.000000 6.270335 0.368871 6.174984 33.678928 11.941489 9.958166 1.547874 0.386157 0.661285 15.526976 -0.230860 9.236343 34.431793 7.020869 12.541241 14.715909 3.317792 6.840474 -4.329821 -0.308898 4.094368 -69.998703 15.804968 2.098665 9.268985 5.923600 -20.143106 16.640444 -11.455616 3.612482 -1.187171 -1.461101 6.908748 0.079971 -0.175215 -0.149887 0.000000 0.000000 0.000000 0.000000 0.000000 0.000000 -3.297651 7.241851 10.252108 -22.425045 17.418959 -1.253044 -22.212158 19.407640 1.498020 -9.235908 6.115194 -0.789532 -20.082294 11.220477 -3.378693 -26.349993 15.655478 -3.850041 0.000000 0.000000 0.000000 -7.947604 1.855697 -4.099405 -25.421236 8.462025 -8.150749 -23.904879 7.950732 -8.994699 -7.452140 -2.572754 -7.616679 -26.000366 4.591698 -9.846666 -12.569333 2.719841 -5.887377 0.340288 -0.018671 -0.999452 -0.133256 -0.006602 0.391285 
